<svg xmlns="http://www.w3.org/2000/svg" viewBox="0 0 1235 650">
	<path fill="#CCCCCC" d="M0 0h1235v650H0z"/>
	<path fill="none" stroke="#DDDDDD" stroke-width="50" d="M0 75h1235M0 175h1235M0 275h1235M0 375h1235M0 475h1235M0 575h1235"/>
	<path fill="#CCCCCC" d="M0 0h494v350H0z"/><g fill="#DDDDDD"><path d="M27.8 38.8l-4.5 13.8L35.1 44l11.8 8.6-4.5-13.8 11.7-8.6H39.6l-4.5-13.8-4.5 13.8H16.1M92.8 38.8l-4.5 13.8 11.8-8.6 11.8 8.6-4.5-13.8 11.7-8.6h-14.5l-4.5-13.8-4.5 13.8H81.1M157.8 38.8l-4.5 13.8 11.8-8.6 11.8 8.6-4.5-13.8 11.7-8.6h-14.5l-4.5-13.8-4.5 13.8h-14.5M222.8 38.8l-4.5 13.8 11.8-8.6 11.8 8.6-4.5-13.8 11.7-8.6h-14.5l-4.5-13.8-4.5 13.8h-14.5M287.8 38.8l-4.5 13.8 11.8-8.6 11.8 8.6-4.5-13.8 11.7-8.6h-14.5l-4.5-13.8-4.5 13.8h-14.5M352.8 38.8l-4.5 13.8 11.8-8.6 11.8 8.6-4.5-13.8 11.7-8.6h-14.5l-4.5-13.8-4.5 13.8h-14.5M417.8 38.8l-4.5 13.8 11.8-8.6 11.8 8.6-4.5-13.8 11.7-8.6h-14.5l-4.5-13.8-4.5 13.8h-14.5M63.1 76.4H48.6l11.7 8.5-4.5 13.8 11.8-8.5 11.8 8.5-4.5-13.8 11.7-8.5H72.1l-4.5-13.9M128.1 76.4h-14.5l11.7 8.5-4.5 13.8 11.8-8.5 11.8 8.5-4.5-13.8 11.7-8.5h-14.5l-4.5-13.9M193.1 76.4h-14.5l11.7 8.5-4.5 13.8 11.8-8.5 11.8 8.5-4.5-13.8 11.7-8.5h-14.5l-4.5-13.9M258.1 76.4h-14.5l11.7 8.5-4.5 13.8 11.8-8.5 11.8 8.5-4.5-13.8 11.7-8.5h-14.5l-4.5-13.9M323.1 76.4h-14.5l11.7 8.5-4.5 13.8 11.8-8.5 11.8 8.5-4.5-13.8 11.7-8.5h-14.5l-4.5-13.9M388.1 76.4h-14.5l11.7 8.5-4.5 13.8 11.8-8.5 11.8 8.5-4.5-13.8 11.7-8.5h-14.5l-4.5-13.9M453.1 76.4h-14.5l11.7 8.5-4.5 13.8 11.8-8.5 11.8 8.5-4.5-13.8 11.7-8.5h-14.5l-4.5-13.9M23.3 144.9l11.8-8.6 11.8 8.6-4.5-13.8 11.7-8.6H39.6l-4.5-13.8-4.5 13.8H16.1l11.7 8.6M104.6 122.5l-4.5-13.8-4.5 13.8H81.1l11.7 8.6-4.5 13.8 11.8-8.6 11.8 8.6-4.5-13.8 11.7-8.6M169.6 122.5l-4.5-13.8-4.5 13.8h-14.5l11.7 8.6-4.5 13.8 11.8-8.6 11.8 8.6-4.5-13.8 11.7-8.6M234.6 122.5l-4.5-13.8-4.5 13.8h-14.5l11.7 8.6-4.5 13.8 11.8-8.6 11.8 8.6-4.5-13.8 11.7-8.6M299.6 122.5l-4.5-13.8-4.5 13.8h-14.5l11.7 8.6-4.5 13.8 11.8-8.6 11.8 8.6-4.5-13.8 11.7-8.6M364.6 122.5l-4.5-13.8-4.5 13.8h-14.5l11.7 8.6-4.5 13.8 11.8-8.6 11.8 8.6-4.5-13.8 11.7-8.6M429.6 122.5l-4.5-13.8-4.5 13.8h-14.5l11.7 8.6-4.5 13.8 11.8-8.6 11.8 8.6-4.5-13.8 11.7-8.6M72.1 168.7l-4.5-13.9-4.5 13.9H48.6l11.7 8.5-4.5 13.8 11.8-8.5 11.8 8.5-4.5-13.8 11.7-8.5M137.1 168.7l-4.5-13.9-4.5 13.9h-14.5l11.7 8.5-4.5 13.8 11.8-8.5 11.8 8.5-4.5-13.8 11.7-8.5M202.1 168.7l-4.5-13.9-4.5 13.9h-14.5l11.7 8.5-4.5 13.8 11.8-8.5 11.8 8.5-4.5-13.8 11.7-8.5M267.1 168.7l-4.5-13.9-4.5 13.9h-14.5l11.7 8.5-4.5 13.8 11.8-8.5 11.8 8.5-4.5-13.8 11.7-8.5M332.1 168.7l-4.5-13.9-4.5 13.9h-14.5l11.7 8.5-4.5 13.8 11.8-8.5 11.8 8.5-4.5-13.8 11.7-8.5M397.1 168.7l-4.5-13.9-4.5 13.9h-14.5l11.7 8.5-4.5 13.8 11.8-8.5 11.8 8.5-4.5-13.8 11.7-8.5M457.6 154.8l-4.5 13.9h-14.5l11.7 8.5-4.5 13.8 11.8-8.5 11.8 8.5-4.5-13.8 11.7-8.5h-14.5M23.3 237.2l11.8-8.6 11.8 8.6-4.5-13.8 11.7-8.6H39.6L35.1 201l-4.5 13.8H16.1l11.7 8.6M104.6 214.8l-4.5-13.8-4.5 13.8H81.1l11.7 8.6-4.5 13.8 11.8-8.6 11.8 8.6-4.5-13.8 11.7-8.6M169.6 214.8l-4.5-13.8-4.5 13.8h-14.5l11.7 8.6-4.5 13.8 11.8-8.6 11.8 8.6-4.5-13.8 11.7-8.6M234.6 214.8l-4.5-13.8-4.5 13.8h-14.5l11.7 8.6-4.5 13.8 11.8-8.6 11.8 8.6-4.5-13.8 11.7-8.6M299.6 214.8l-4.5-13.8-4.5 13.8h-14.5l11.7 8.6-4.5 13.8 11.8-8.6 11.8 8.6-4.5-13.8 11.7-8.6M364.6 214.8l-4.5-13.8-4.5 13.8h-14.5l11.7 8.6-4.5 13.8 11.8-8.6 11.8 8.6-4.5-13.8 11.7-8.6M429.6 214.8l-4.5-13.8-4.5 13.8h-14.5l11.7 8.6-4.5 13.8 11.8-8.6 11.8 8.6-4.5-13.8 11.7-8.6M74.9 269.5l11.7-8.5H72.1l-4.5-13.9-4.5 13.9H48.6l11.7 8.5-4.5 13.8 11.8-8.5 11.8 8.5M139.9 269.5l11.7-8.5h-14.5l-4.5-13.9-4.5 13.9h-14.5l11.7 8.5-4.5 13.8 11.8-8.5 11.8 8.5M204.9 269.5l11.7-8.5h-14.5l-4.5-13.9-4.5 13.9h-14.5l11.7 8.5-4.5 13.8 11.8-8.5 11.8 8.5M269.9 269.5l11.7-8.5h-14.5l-4.5-13.9-4.5 13.9h-14.5l11.7 8.5-4.5 13.8 11.8-8.5 11.8 8.5M334.9 269.5l11.7-8.5h-14.5l-4.5-13.9-4.5 13.9h-14.5l11.7 8.5-4.5 13.8 11.8-8.5 11.8 8.5M399.9 269.5l11.7-8.5h-14.5l-4.5-13.9-4.5 13.9h-14.5l11.7 8.5-4.5 13.8 11.8-8.5 11.8 8.5M462.1 261l-4.5-13.9-4.5 13.9h-14.5l11.7 8.5-4.5 13.8 11.8-8.5 11.8 8.5-4.5-13.8 11.7-8.5M39.6 307.1l-4.5-13.8-4.5 13.8H16.1l11.7 8.6-4.5 13.8 11.8-8.6 11.8 8.6-4.5-13.8 11.7-8.6M104.6 307.1l-4.5-13.8-4.5 13.8H81.1l11.7 8.6-4.5 13.8 11.8-8.6 11.8 8.6-4.5-13.8 11.7-8.6M169.6 307.1l-4.5-13.8-4.5 13.8h-14.5l11.7 8.6-4.5 13.8 11.8-8.6 11.8 8.6-4.5-13.8 11.7-8.6M234.6 307.1l-4.5-13.8-4.5 13.8h-14.5l11.7 8.6-4.5 13.8 11.8-8.6 11.8 8.6-4.5-13.8 11.7-8.6M299.6 307.1l-4.5-13.8-4.5 13.8h-14.5l11.7 8.6-4.5 13.8 11.8-8.6 11.8 8.6-4.5-13.8 11.7-8.6M364.6 307.1l-4.5-13.8-4.5 13.8h-14.5l11.7 8.6-4.5 13.8 11.8-8.6 11.8 8.6-4.5-13.8 11.7-8.6M429.6 307.1l-4.5-13.8-4.5 13.8h-14.5l11.7 8.6-4.5 13.8 11.8-8.6 11.8 8.6-4.5-13.8 11.7-8.6"/></g>
</svg>
